<svg width="214" height="48" viewBox="0 0 214 48" fill="none" xmlns="http://www.w3.org/2000/svg">
<rect width="214" height="48" rx="14" fill="black"/>
<path d="M76.736 18.744H81.392V13.776H83.192V29.496H81.392V20.256H76.736V18.744ZM65.984 25.008C69.056 23.832 71.264 20.88 71.264 17.64V15H73.04V17.688C73.04 20.664 75.2 23.424 78.176 24.552L77.216 25.944C74.912 25.032 73.088 23.184 72.2 20.88C71.312 23.424 69.392 25.44 66.92 26.448L65.984 25.008ZM69.728 34.272V27.72H71.528V32.784H83.696V34.272H69.728ZM87.8726 15.288H95.9366V16.776H89.6006V19.488H95.7206V20.904H89.6006V23.856C92.6726 23.856 94.5686 23.736 96.8006 23.304L96.9926 24.768C94.5686 25.248 92.5766 25.344 89.1926 25.344H87.8726V15.288ZM90.5606 29.088V27.6H104.601V34.752H102.825V29.088H90.5606ZM98.2406 26.352V14.16H99.9446V19.272H102.897V13.752H104.601V26.472H102.897V20.76H99.9446V26.352H98.2406ZM122.241 13.752H124.041V22.44H127.521V23.952H124.041V34.752H122.241V13.752ZM107.793 18.624V17.136H113.169V13.992H114.993V17.136H120.225V18.624H107.793ZM109.017 25.224C109.017 22.392 111.177 20.424 114.105 20.424C117.057 20.424 119.193 22.392 119.193 25.224C119.193 28.056 117.057 30.024 114.105 30.024C111.177 30.024 109.017 28.056 109.017 25.224ZM110.745 25.224C110.745 27.144 112.137 28.512 114.105 28.512C116.049 28.512 117.465 27.144 117.465 25.224C117.465 23.304 116.049 21.912 114.105 21.912C112.137 21.912 110.745 23.304 110.745 25.224ZM144.274 13.752H146.074V34.752H144.274V13.752ZM129.154 29.352C134.818 26.64 137.674 22.536 138.058 17.496H130.09V16.008H139.882C139.882 22.056 137.098 27.384 130.114 30.792L129.154 29.352Z" fill="#EDBF66"/>
</svg>
